<svg id="Layer_1" data-name="Layer 1" xmlns="http://www.w3.org/2000/svg" viewBox="0 0 587 242.19"><path d="M66,44v86.42a63.21,63.21,0,0,0,41.45,59.2L131,198.19l23.55-8.57A63.21,63.21,0,0,0,196,130.42V44Zm6,16.83L88.67,77.5H80V88.17l-8-8Zm47,70.67c2.94,0,9,2.2,9,9h6a9,9,0,0,1,9-9h27v-48h6v54H140v3c0,6.8-6.06,9-9,9a9,9,0,0,1-9-9v-3H86v-54h6v48Zm-21-6v-54h21a9,9,0,0,1,9,9h6a9,9,0,0,1,9-9h21v54H143a15.45,15.45,0,0,0-11.95,5.91A15.74,15.74,0,0,0,119,125.5Zm78.67,18-8.17,8.17-8.17-8.17ZM72,85.83l8,8v19.34l-8-8Zm0,25,8,8v19.34l-8-8ZM109.5,184a57.19,57.19,0,0,1-37.2-47.85l54,54Zm23.43,7.12-47.6-47.6h19.34l42.44,42.44ZM152.5,184l-1.24.45L110.33,143.5h6a15.12,15.12,0,0,0,14.71,12,15.86,15.86,0,0,0,8.21-2.46l25,25A56.69,56.69,0,0,1,152.5,184Zm15.05-8.26L142.3,150.47a13.88,13.88,0,0,0,3.44-7h8.93l22.67,22.67A57.11,57.11,0,0,1,167.55,175.72Zm12.21-12.78-8.43-8.44,18.37-18.37A57,57,0,0,1,179.76,162.94ZM190,130.17l-8,8V118.83l8-8Zm0-25-8,8V93.83l8-8Zm0-25-8,8V77.5h-8.67L190,60.83Zm0-25-20,20V65.5H143a15,15,0,0,0-12,6,15,15,0,0,0-12-6H92v9.67l-20-20V50H190Z"/><path d="M228.5,77.5h42.37V88.13h-31v16.22h24.56V115H239.88v17.9H272.5V143.5h-44Z"/><path d="M285.25,77.5h12v66h-12Z"/><path d="M370.21,110.79a38.92,38.92,0,0,1,2.61-14.54,32.66,32.66,0,0,1,7.23-11.15A31.61,31.61,0,0,1,391,78a42.7,42.7,0,0,1,28.2-.19,31,31,0,0,1,11.09,7,32.29,32.29,0,0,1,7.27,11.1,38.55,38.55,0,0,1,2.61,14.49,37.3,37.3,0,0,1-2.61,14.21,32.54,32.54,0,0,1-7.27,11,33,33,0,0,1-11.09,7.2,38.77,38.77,0,0,1-14.17,2.68A38.34,38.34,0,0,1,391,143a31.8,31.8,0,0,1-11-7.06,32.33,32.33,0,0,1-7.23-11A37.25,37.25,0,0,1,370.21,110.79Zm12.3-.76a28.81,28.81,0,0,0,1.64,9.88,23.05,23.05,0,0,0,4.61,7.81,21.47,21.47,0,0,0,7.13,5.18,22.29,22.29,0,0,0,9.27,1.88,22.64,22.64,0,0,0,9.33-1.88,21.43,21.43,0,0,0,7.17-5.18,23.24,23.24,0,0,0,4.62-7.81,29,29,0,0,0,1.63-9.88,26.37,26.37,0,0,0-1.63-9.31,23.14,23.14,0,0,0-4.62-7.57,21,21,0,0,0-7.17-5.08,23,23,0,0,0-9.33-1.84,22.6,22.6,0,0,0-9.27,1.84,21.06,21.06,0,0,0-7.13,5.08,23,23,0,0,0-4.61,7.57A26.15,26.15,0,0,0,382.51,110Z"/><path d="M359.18,93.15A21,21,0,0,0,352,88.07a22.87,22.87,0,0,0-9.32-1.84,22.53,22.53,0,0,0-9.27,1.84,21,21,0,0,0-7.13,5.08,23.14,23.14,0,0,0-4.62,7.57A26.15,26.15,0,0,0,320,110a28.81,28.81,0,0,0,1.63,9.88,23.24,23.24,0,0,0,4.62,7.81,21.37,21.37,0,0,0,7.13,5.18,22.22,22.22,0,0,0,9.27,1.88A22.56,22.56,0,0,0,352,132.9a21.37,21.37,0,0,0,7.18-5.18l8.67,7.9a33.11,33.11,0,0,1-11.09,7.2,38.77,38.77,0,0,1-14.17,2.68,38.3,38.3,0,0,1-14-2.49,31.85,31.85,0,0,1-11-7.06,32.45,32.45,0,0,1-7.22-11,37.25,37.25,0,0,1-2.61-14.2,38.92,38.92,0,0,1,2.61-14.54,32.79,32.79,0,0,1,7.22-11.15,31.65,31.65,0,0,1,11-7.1,38.3,38.3,0,0,1,14-2.49,38.72,38.72,0,0,1,14.17,2.3,31.07,31.07,0,0,1,11.09,7Z"/><path d="M447,77.5h18.65L484,123.74,502.55,77.5H521v66H509.35V88.69h-.2L488.27,143.5h-8.54L458.85,88.69h-.2V143.5H447Z"/><path d="M318.3,156.47h3.46V182H318.3Z"/><path d="M329.29,156.47h4.54l14,20.95h.07V156.47h3.45V182H347l-14.18-21h-.07v21h-3.46Z"/><path d="M361.77,176.63a5.6,5.6,0,0,0,2.39,2.07,7.25,7.25,0,0,0,3,.67,5.82,5.82,0,0,0,1.76-.28,5.11,5.11,0,0,0,1.64-.8,4.7,4.7,0,0,0,1.21-1.34,3.53,3.53,0,0,0,.46-1.83,2.74,2.74,0,0,0-.93-2.25,8.16,8.16,0,0,0-2.32-1.3c-.93-.35-1.94-.68-3-1a12,12,0,0,1-3-1.35,7.24,7.24,0,0,1-2.32-2.32,7.16,7.16,0,0,1-.94-3.94,6.8,6.8,0,0,1,2-4.68,8.36,8.36,0,0,1,2.68-1.75,9.92,9.92,0,0,1,3.94-.7,13.63,13.63,0,0,1,4,.58,6.8,6.8,0,0,1,3.34,2.34l-2.8,2.55a4.77,4.77,0,0,0-1.84-1.62,5.9,5.9,0,0,0-2.7-.61,6.54,6.54,0,0,0-2.39.38,4.15,4.15,0,0,0-1.53,1,3.3,3.3,0,0,0-.81,1.28,3.87,3.87,0,0,0-.24,1.26,3.18,3.18,0,0,0,.94,2.48,7.2,7.2,0,0,0,2.32,1.41,28.26,28.26,0,0,0,3,1,13.3,13.3,0,0,1,3,1.2A7.14,7.14,0,0,1,375,171.1a6.2,6.2,0,0,1,.94,3.62,7.55,7.55,0,0,1-.71,3.31,7.1,7.1,0,0,1-1.89,2.49,8.37,8.37,0,0,1-2.8,1.55,11.19,11.19,0,0,1-3.46.54,12.46,12.46,0,0,1-4.64-.87,7.61,7.61,0,0,1-3.5-2.66Z"/><path d="M391.66,159.71h-8.21v-3.24h19.87v3.24h-8.21V182h-3.45Z"/><path d="M410.85,156.47h3.46V182h-3.46Z"/><path d="M430,159.71h-8.2v-3.24h19.87v3.24H433.5V182H430Z"/><path d="M452.69,156.47v15.62a9.88,9.88,0,0,0,.33,2.47,6.93,6.93,0,0,0,1.08,2.36,5.72,5.72,0,0,0,2,1.76,6,6,0,0,0,3,.69,6.12,6.12,0,0,0,3-.69,5.91,5.91,0,0,0,2-1.76,7.33,7.33,0,0,0,1.08-2.36,10.34,10.34,0,0,0,.32-2.47V156.47H469v16.16a10.51,10.51,0,0,1-.76,4.05,9.38,9.38,0,0,1-2.09,3.15,9.05,9.05,0,0,1-3.13,2,10.73,10.73,0,0,1-7.78,0,9.05,9.05,0,0,1-3.13-2,9.53,9.53,0,0,1-2.09-3.15,10.51,10.51,0,0,1-.75-4.05V156.47Z"/><path d="M484.71,159.71H476.5v-3.24h19.87v3.24h-8.21V182h-3.45Z"/><path d="M503.9,156.47h16.45v3.24h-13v7.59h12.09v3.25H507.36v8.17H521V182H503.9Z"/><path d="M151.5,97.5V92.93a7,7,0,0,1-6-6.93,6.8,6.8,0,0,1,2.09-4.94L149,82.51A4.73,4.73,0,0,0,147.5,86a5,5,0,0,0,1.78,3.83,4.91,4.91,0,0,0,2.22,1.08V82.53A3.06,3.06,0,0,1,153,79.92a2.85,2.85,0,0,1,2.84-.08,7,7,0,0,1-2.07,13.06l-.26,0V97.5Zm3-16a.85.85,0,0,0-.47.14,1.05,1.05,0,0,0-.52.89v8.38a5,5,0,0,0,1.38-9.31A.87.87,0,0,0,154.49,81.5Z"/></svg>